<?xml version="1.0" encoding="UTF-8" standalone="no"?>
<!DOCTYPE svg PUBLIC "-//W3C//DTD SVG 1.1//EN" "http://www.w3.org/Graphics/SVG/1.1/DTD/svg11.dtd">
<svg width="100%" height="100%" viewBox="0 0 973 203" version="1.1" xmlns="http://www.w3.org/2000/svg" xmlns:xlink="http://www.w3.org/1999/xlink" xml:space="preserve" xmlns:serif="http://www.serif.com/" style="fill-rule:evenodd;clip-rule:evenodd;stroke-linejoin:round;stroke-miterlimit:2;">
    <g transform="matrix(1,0,0,1,-102.136,-98.4719)">
        <g transform="matrix(0.868488,0,0,0.868488,13.4321,11.8308)">
            <g transform="matrix(3.12918,0,0,-2.99035,490.898,139.246)">
                <path d="M0,-34.775L0,-7.105L-13.262,-26.776L-13.969,-26.776L-27.276,-7.152L-27.276,-34.775L-30.148,-34.775L-30.148,0L-28.877,0L-13.593,-22.494L1.551,0L2.867,0L2.867,-34.775L0,-34.775Z" style="fill:white;fill-rule:nonzero;"/>
            </g>
            <g transform="matrix(3.12918,0,0,-2.99035,567.351,-835.14)">
                <path d="M-8.622,-361.559L-11.499,-361.559L-11.499,-335.89L-8.622,-335.89L-8.622,-361.559ZM-12.457,-329.411C-12.457,-328.021 -11.355,-326.965 -9.966,-326.965C-8.622,-326.965 -7.52,-328.021 -7.52,-329.411C-7.52,-330.803 -8.622,-331.858 -9.966,-331.858C-11.355,-331.858 -12.457,-330.803 -12.457,-329.411" style="fill:white;fill-rule:nonzero;"/>
            </g>
            <g transform="matrix(3.12918,0,0,-2.99035,568.735,178.61)">
                <path d="M0,-19.385C-2.448,-16.842 -3.694,-13.627 -3.694,-9.741C-3.694,-5.806 -2.448,-2.591 0.046,-0.049C2.587,2.494 5.801,3.742 9.685,3.742C14.72,3.742 19.178,1.199 21.144,-2.88L18.798,-4.224C17.069,-0.96 13.568,1.102 9.685,1.102C6.662,1.102 4.123,0.095 2.156,-1.968C0.192,-3.983 -0.815,-6.575 -0.815,-9.741C-0.815,-12.86 0.142,-15.449 2.06,-17.466C3.979,-19.481 6.426,-20.489 9.397,-20.489C13.282,-20.489 16.974,-18.282 18.652,-15.163L21,-16.601C19.994,-18.57 18.411,-20.152 16.303,-21.352C14.193,-22.552 11.889,-23.127 9.397,-23.127C5.61,-23.127 2.445,-21.881 0,-19.385" style="fill:white;fill-rule:nonzero;"/>
            </g>
            <g transform="matrix(3.12918,0,0,-2.99035,648.71,167.276)">
                <path d="M0,-26.342L0,-0.673L2.733,-0.673L2.733,-4.799C4.126,-1.584 6.57,0 10.166,0C11.172,0 12.228,-0.144 13.33,-0.433L12.995,-3.167C12.084,-2.878 11.172,-2.734 10.263,-2.734C5.61,-2.734 2.877,-6.381 2.877,-11.707L2.877,-26.342L0,-26.342Z" style="fill:white;fill-rule:nonzero;"/>
            </g>
            <g transform="matrix(3.12918,0,0,-2.99035,755.248,184.642)">
                <path d="M0,-15.4C1.966,-13.289 2.974,-10.697 2.974,-7.675C2.974,-4.653 1.966,-2.061 0,0.002C-1.965,2.065 -4.462,3.121 -7.479,3.121C-10.454,3.121 -12.949,2.065 -14.963,-0.046C-16.926,-2.109 -17.932,-4.653 -17.932,-7.675C-17.932,-10.697 -16.926,-13.289 -14.963,-15.4C-12.949,-17.463 -10.454,-18.519 -7.479,-18.519C-4.462,-18.519 -1.965,-17.463 0,-15.4M-17.022,1.873C-14.48,4.465 -11.314,5.758 -7.479,5.758C-3.642,5.758 -0.479,4.465 2.062,1.873C4.604,-0.717 5.851,-3.884 5.851,-7.675C5.851,-11.466 4.604,-14.681 2.062,-17.273C-0.479,-19.863 -3.642,-21.158 -7.479,-21.158C-11.314,-21.158 -14.48,-19.863 -17.022,-17.273C-19.563,-14.681 -20.811,-11.466 -20.811,-7.675C-20.811,-3.884 -19.563,-0.717 -17.022,1.873" style="fill:white;fill-rule:nonzero;"/>
            </g>
            <g transform="matrix(3.12918,0,0,-2.99035,900.652,237.875)">
                <path d="M0,20.874C1.871,19.049 2.781,16.508 2.781,13.245L2.781,-2.734L-0.096,-2.734L-0.096,13.005C-0.096,17.948 -2.877,20.922 -7.145,20.922C-9.158,20.922 -10.98,20.203 -12.562,18.811C-14.145,17.419 -14.913,15.356 -14.913,12.62L-14.913,-2.734L-17.79,-2.734L-17.79,12.668C-17.79,17.706 -20.524,20.922 -24.79,20.922C-26.852,20.922 -28.723,20.155 -30.306,18.667C-31.887,17.179 -32.654,14.827 -32.654,11.709L-32.654,-2.734L-35.531,-2.734L-35.531,22.937L-32.702,22.937L-32.702,18.619C-31.312,21.737 -28.242,23.608 -24.6,23.608C-20.905,23.608 -17.645,21.641 -16.257,18.042C-14.672,21.641 -11.03,23.608 -7.048,23.608C-4.171,23.608 -1.821,22.697 0,20.874" style="fill:white;fill-rule:nonzero;"/>
            </g>
            <g transform="matrix(3.12918,0,0,-2.99035,933.674,212.042)">
                <path d="M0,2.975L18.747,2.975C18.701,8.685 15.009,12.282 9.782,12.282C4.412,12.282 0.575,8.589 0,2.975M21.577,0.335L0,0.335C0.433,-5.373 4.126,-9.26 10.405,-9.26C13.715,-9.26 17.501,-8.061 19.803,-6.19L21.146,-8.397C18.652,-10.364 14.576,-11.947 10.357,-11.947C0.91,-11.947 -2.973,-5.183 -2.973,1.535C-2.973,5.423 -1.821,8.589 0.529,11.131C2.877,13.674 5.947,14.922 9.782,14.922C13.234,14.922 16.063,13.818 18.317,11.563C20.571,9.356 21.721,6.382 21.721,2.59C21.721,2.256 21.673,1.487 21.577,0.335" style="fill:white;fill-rule:nonzero;"/>
            </g>
            <g transform="matrix(3.12918,0,0,-2.99035,1017.25,167.276)">
                <path d="M0,-26.342L0,-0.673L2.733,-0.673L2.733,-4.799C4.125,-1.584 6.57,0 10.166,0C11.172,0 12.228,-0.144 13.33,-0.433L12.995,-3.167C12.084,-2.878 11.172,-2.734 10.262,-2.734C5.61,-2.734 2.875,-6.381 2.875,-11.707L2.875,-26.342L0,-26.342Z" style="fill:white;fill-rule:nonzero;"/>
            </g>
            <g transform="matrix(3.12918,0,0,-2.99035,1070.38,178.61)">
                <path d="M0,-19.385C-2.446,-16.842 -3.693,-13.627 -3.693,-9.741C-3.693,-5.806 -2.446,-2.591 0.048,-0.049C2.591,2.494 5.8,3.742 9.685,3.742C14.72,3.742 19.182,1.199 21.146,-2.88L18.798,-4.224C17.071,-0.96 13.568,1.102 9.685,1.102C6.666,1.102 4.125,0.095 2.158,-1.968C0.192,-3.983 -0.816,-6.575 -0.816,-9.741C-0.816,-12.86 0.144,-15.449 2.062,-17.466C3.979,-19.481 6.425,-20.489 9.397,-20.489C13.282,-20.489 16.974,-18.282 18.651,-15.163L21.003,-16.601C19.996,-18.57 18.413,-20.152 16.303,-21.352C14.193,-22.552 11.891,-23.127 9.397,-23.127C5.61,-23.127 2.446,-21.881 0,-19.385" style="fill:white;fill-rule:nonzero;"/>
            </g>
            <g transform="matrix(3.12918,0,0,-2.99035,1154.41,212.042)">
                <path d="M0,2.975L18.747,2.975C18.701,8.685 15.009,12.282 9.781,12.282C4.412,12.282 0.575,8.589 0,2.975M21.578,0.335L0,0.335C0.433,-5.373 4.125,-9.26 10.405,-9.26C13.717,-9.26 17.503,-8.061 19.805,-6.19L21.146,-8.397C18.651,-10.364 14.576,-11.947 10.356,-11.947C0.911,-11.947 -2.973,-5.183 -2.973,1.535C-2.973,5.423 -1.821,8.589 0.529,11.131C2.877,13.674 5.946,14.922 9.781,14.922C13.235,14.922 16.063,13.818 18.317,11.563C20.571,9.356 21.723,6.382 21.723,2.59C21.723,2.256 21.675,1.487 21.578,0.335" style="fill:white;fill-rule:nonzero;"/>
            </g>
            <g transform="matrix(2.70958,-1.49578,1.56523,2.58936,134.926,129.228)">
                <path d="M2.403,-2.402L15.526,-2.402L8.959,8.965L-4.163,8.964L2.403,-2.402Z" style="fill:rgb(255,222,79);fill-rule:nonzero;"/>
            </g>
            <g transform="matrix(0,-2.99035,3.12918,0,201.275,146.214)">
                <path d="M2.4,-8.964L15.526,-8.964L8.964,2.4L-4.163,2.4L2.4,-8.964Z" style="fill:rgb(229,178,57);fill-rule:nonzero;"/>
            </g>
            <g transform="matrix(2.70958,-1.49578,1.56523,2.58936,134.932,247.051)">
                <path d="M2.403,-2.402L15.526,-2.402L8.959,8.965L-4.163,8.964L2.403,-2.402Z" style="fill:rgb(182,31,56);fill-rule:nonzero;"/>
            </g>
            <g transform="matrix(2.70958,-1.49578,1.56523,2.58936,142.446,293.489)">
                <path d="M1.524,-5.684L14.646,-5.684L21.203,5.684L8.08,5.683L1.524,-5.684Z" style="fill:rgb(240,90,137);fill-rule:nonzero;"/>
            </g>
            <g transform="matrix(0,-2.99035,3.12918,0,236.743,283.665)">
                <path d="M2.399,-8.962L15.525,-8.962L8.963,2.399L-4.164,2.399L2.399,-8.962Z" style="fill:rgb(177,154,202);fill-rule:nonzero;"/>
            </g>
            <g transform="matrix(2.70968,-1.49561,1.56505,2.58946,241.494,266.677)">
                <path d="M2.403,-2.402L15.525,-2.402L8.96,8.966L-4.162,8.966L2.403,-2.402Z" style="fill:rgb(102,88,166);fill-rule:nonzero;"/>
            </g>
            <g transform="matrix(0,-2.99035,3.12918,0,130.18,224.791)">
                <path d="M2.4,-8.962L15.526,-8.962L8.964,2.4L-4.164,2.4L2.4,-8.962Z" style="fill:rgb(230,106,64);fill-rule:nonzero;"/>
            </g>
            <g transform="matrix(2.70952,-1.49588,1.56533,2.58931,106.905,195.356)">
                <path d="M1.523,-5.683L14.645,-5.683L21.198,5.683L8.079,5.683L1.523,-5.683Z" style="fill:rgb(249,157,73);fill-rule:nonzero;"/>
            </g>
            <g transform="matrix(2.70968,-1.49561,1.56505,2.58946,241.495,148.835)">
                <path d="M2.403,-2.402L15.525,-2.402L8.96,8.966L-4.162,8.965L2.403,-2.402Z" style="fill:rgb(74,156,92);fill-rule:nonzero;"/>
            </g>
            <g transform="matrix(2.70958,-1.49578,1.56523,2.58936,213.479,136.383)">
                <path d="M1.523,-5.683L14.646,-5.683L21.199,5.683L8.079,5.685L1.523,-5.683Z" style="fill:rgb(163,207,98);fill-rule:nonzero;"/>
            </g>
            <g transform="matrix(0,-2.99035,3.12918,0,307.848,205.092)">
                <path d="M2.401,-8.963L15.526,-8.963L8.964,2.4L-4.163,2.4L2.401,-8.963Z" style="fill:rgb(66,149,209);fill-rule:nonzero;"/>
            </g>
            <g transform="matrix(2.70956,-1.49581,1.56525,2.58935,249.02,234.534)">
                <path d="M1.524,-5.683L14.644,-5.683L21.2,5.683L8.078,5.684L1.524,-5.683Z" style="fill:rgb(109,207,246);fill-rule:nonzero;"/>
            </g>
            <g transform="matrix(3.12918,0,0,-2.99035,753.83,291.097)">
                <path d="M0,-13.685C0.592,-13.461 1.099,-13.158 1.524,-12.775L1.174,-12.04C0.792,-12.381 0.342,-12.645 -0.175,-12.834C-0.692,-13.022 -1.27,-13.116 -1.909,-13.116C-2.859,-13.116 -3.57,-12.757 -4.042,-12.04C-4.514,-11.323 -4.663,-10.4 -4.49,-9.271L-4.454,-9.011L2.402,-9.011L2.536,-8.097C2.721,-6.854 2.52,-5.854 1.931,-5.095C1.343,-4.336 0.475,-3.956 -0.672,-3.956C-1.819,-3.956 -2.856,-4.4 -3.782,-5.287C-4.708,-6.175 -5.276,-7.338 -5.485,-8.778L-5.566,-9.271C-5.769,-10.633 -5.525,-11.766 -4.835,-12.668C-4.145,-13.57 -3.215,-14.021 -2.043,-14.021C-1.273,-14.021 -0.592,-13.909 0,-13.685M1.093,-5.695C1.5,-6.245 1.637,-6.959 1.506,-7.837L1.47,-8.106L-4.194,-8.106L-4.212,-8.052C-3.985,-7.15 -3.551,-6.394 -2.908,-5.785C-2.266,-5.175 -1.565,-4.871 -0.807,-4.871C0.054,-4.871 0.687,-5.145 1.093,-5.695M7.832,0.148L6.766,0.148L4.669,-13.833L5.735,-13.833L7.832,0.148ZM15.091,-13.685C15.683,-13.461 16.19,-13.158 16.615,-12.775L16.265,-12.04C15.883,-12.381 15.433,-12.645 14.916,-12.834C14.399,-13.022 13.821,-13.116 13.182,-13.116C12.232,-13.116 11.521,-12.757 11.049,-12.04C10.577,-11.323 10.428,-10.4 10.601,-9.271L10.637,-9.011L17.493,-9.011L17.627,-8.097C17.812,-6.854 17.611,-5.854 17.022,-5.095C16.434,-4.336 15.566,-3.956 14.419,-3.956C13.272,-3.956 12.235,-4.4 11.309,-5.287C10.383,-6.175 9.815,-7.338 9.606,-8.778L9.525,-9.271C9.322,-10.633 9.566,-11.766 10.256,-12.668C10.946,-13.57 11.877,-14.021 13.048,-14.021C13.818,-14.021 14.5,-13.909 15.091,-13.685M16.184,-5.695C16.591,-6.245 16.728,-6.959 16.597,-7.837L16.561,-8.106L10.897,-8.106L10.879,-8.052C11.106,-7.15 11.54,-6.394 12.183,-5.785C12.825,-5.175 13.526,-4.871 14.284,-4.871C15.145,-4.871 15.778,-5.145 16.184,-5.695M21.982,-4.136L21.023,-4.136L19.571,-13.833L20.656,-13.833L21.669,-7.093C21.955,-6.424 22.354,-5.889 22.865,-5.489C23.376,-5.089 24.002,-4.889 24.743,-4.889C25.507,-4.889 26.062,-5.129 26.405,-5.61C26.749,-6.091 26.831,-6.941 26.652,-8.16L25.8,-13.833L26.885,-13.833L27.754,-8.016C27.76,-7.975 27.764,-7.933 27.767,-7.891C27.77,-7.849 27.778,-7.789 27.79,-7.712C28.029,-6.899 28.422,-6.225 28.968,-5.691C29.515,-5.156 30.189,-4.889 30.989,-4.889C31.754,-4.889 32.308,-5.123 32.652,-5.592C32.995,-6.061 33.075,-6.917 32.889,-8.16L32.038,-13.833L33.113,-13.833L33.965,-8.178C34.174,-6.756 34.04,-5.697 33.562,-5.001C33.083,-4.305 32.349,-3.956 31.357,-3.956C30.568,-3.956 29.872,-4.146 29.269,-4.526C28.665,-4.905 28.172,-5.438 27.79,-6.125C27.67,-5.396 27.387,-4.853 26.938,-4.494C26.49,-4.136 25.911,-3.956 25.2,-3.956C24.483,-3.956 23.842,-4.104 23.277,-4.4C22.713,-4.696 22.236,-5.122 21.848,-5.677L21.982,-4.136ZM42.281,-13.685C42.873,-13.461 43.38,-13.158 43.805,-12.775L43.455,-12.04C43.073,-12.381 42.623,-12.645 42.106,-12.834C41.589,-13.022 41.011,-13.116 40.372,-13.116C39.422,-13.116 38.711,-12.757 38.239,-12.04C37.767,-11.323 37.618,-10.4 37.791,-9.271L37.827,-9.011L44.683,-9.011L44.817,-8.097C45.003,-6.854 44.801,-5.854 44.213,-5.095C43.624,-4.336 42.756,-3.956 41.609,-3.956C40.462,-3.956 39.425,-4.4 38.499,-5.287C37.573,-6.175 37.005,-7.338 36.796,-8.778L36.716,-9.271C36.512,-10.633 36.756,-11.766 37.446,-12.668C38.136,-13.57 39.067,-14.021 40.238,-14.021C41.008,-14.021 41.69,-13.909 42.281,-13.685M43.375,-5.695C43.781,-6.245 43.918,-6.959 43.787,-7.837L43.751,-8.106L38.087,-8.106L38.069,-8.052C38.296,-7.15 38.731,-6.394 39.373,-5.785C40.015,-5.175 40.716,-4.871 41.475,-4.871C42.335,-4.871 42.968,-5.145 43.375,-5.695M49.217,-4.136L48.267,-4.136L46.815,-13.833L47.891,-13.833L48.895,-7.129C49.217,-6.454 49.65,-5.912 50.194,-5.502C50.738,-5.093 51.374,-4.889 52.103,-4.889C52.886,-4.889 53.446,-5.108 53.783,-5.547C54.121,-5.986 54.206,-6.783 54.039,-7.936L53.152,-13.833L54.227,-13.833L55.114,-7.927C55.317,-6.577 55.183,-5.577 54.711,-4.929C54.239,-4.281 53.495,-3.956 52.479,-3.956C51.75,-3.956 51.099,-4.113 50.526,-4.427C49.952,-4.741 49.468,-5.187 49.074,-5.767L49.217,-4.136ZM60.133,-1.653L59.756,-4.136L58.08,-4.136L57.955,-5.014L59.622,-5.014L58.681,-11.332C58.537,-12.259 58.63,-12.938 58.958,-13.371C59.287,-13.805 59.78,-14.021 60.437,-14.021C60.646,-14.021 60.858,-14 61.074,-13.958C61.289,-13.916 61.477,-13.857 61.638,-13.779L61.593,-12.981C61.426,-13.017 61.278,-13.043 61.15,-13.058C61.021,-13.073 60.894,-13.08 60.769,-13.08C60.375,-13.08 60.082,-12.955 59.891,-12.704C59.699,-12.453 59.654,-11.996 59.756,-11.332L60.697,-5.014L62.839,-5.014L62.965,-4.136L60.832,-4.136L61.208,-1.653L60.133,-1.653ZM71.738,-13.833C71.69,-13.516 71.672,-13.2 71.684,-12.883C71.696,-12.566 71.729,-12.232 71.783,-11.879L72.5,-7.111C72.649,-6.107 72.433,-5.331 71.85,-4.781C71.267,-4.231 70.462,-3.956 69.435,-3.956C68.347,-3.956 67.417,-4.234 66.643,-4.79C65.869,-5.346 65.443,-6 65.366,-6.753L65.384,-6.806L66.361,-6.815C66.438,-6.284 66.759,-5.827 67.324,-5.444C67.889,-5.062 68.529,-4.871 69.246,-4.871C70.059,-4.871 70.652,-5.06 71.025,-5.44C71.399,-5.819 71.535,-6.37 71.433,-7.093L71.254,-8.294L68.87,-8.294C67.645,-8.294 66.616,-8.554 65.783,-9.074C64.949,-9.594 64.466,-10.305 64.335,-11.207C64.204,-12.061 64.371,-12.744 64.837,-13.255C65.303,-13.766 65.993,-14.021 66.907,-14.021C67.666,-14.021 68.374,-13.849 69.031,-13.506C69.689,-13.162 70.232,-12.731 70.662,-12.211C70.621,-12.456 70.6,-12.695 70.6,-12.928C70.6,-13.161 70.606,-13.462 70.618,-13.833L71.738,-13.833ZM65.738,-12.583C65.43,-12.257 65.318,-11.81 65.402,-11.243C65.491,-10.663 65.86,-10.164 66.508,-9.746C67.157,-9.328 67.899,-9.119 68.736,-9.119L71.129,-9.119L70.833,-11.055C70.504,-11.634 70.001,-12.115 69.323,-12.498C68.644,-12.88 67.926,-13.071 67.167,-13.071C66.522,-13.071 66.045,-12.908 65.738,-12.583M81.112,-4.055C81.04,-4.031 80.943,-4.009 80.821,-3.988C80.698,-3.967 80.574,-3.956 80.449,-3.956C79.791,-3.956 79.203,-4.118 78.683,-4.44C78.163,-4.763 77.721,-5.217 77.357,-5.803L77.366,-5.749L77.473,-4.136L76.532,-4.136L75.08,-13.833L76.156,-13.833L77.15,-7.201C77.443,-6.526 77.841,-5.991 78.342,-5.597C78.844,-5.202 79.421,-5.005 80.072,-5.005L80.825,-5.059L81.112,-4.055ZM92.851,-13.685C93.442,-13.461 93.95,-13.158 94.375,-12.775L94.025,-12.04C93.643,-12.381 93.193,-12.645 92.676,-12.834C92.159,-13.022 91.581,-13.116 90.942,-13.116C89.992,-13.116 89.281,-12.757 88.809,-12.04C88.337,-11.323 88.187,-10.4 88.361,-9.271L88.397,-9.011L95.253,-9.011L95.387,-8.097C95.572,-6.854 95.371,-5.854 94.782,-5.095C94.194,-4.336 93.326,-3.956 92.179,-3.956C91.032,-3.956 89.995,-4.4 89.069,-5.287C88.143,-6.175 87.575,-7.338 87.366,-8.778L87.285,-9.271C87.082,-10.633 87.326,-11.766 88.016,-12.668C88.706,-13.57 89.636,-14.021 90.808,-14.021C91.578,-14.021 92.259,-13.909 92.851,-13.685M93.944,-5.695C94.351,-6.245 94.488,-6.959 94.357,-7.837L94.321,-8.106L88.657,-8.106L88.639,-8.052C88.866,-7.15 89.3,-6.394 89.943,-5.785C90.585,-5.175 91.285,-4.871 92.044,-4.871C92.905,-4.871 93.538,-5.145 93.944,-5.695M100.038,-4.136L98.971,-4.136L97.52,-13.833L98.586,-13.833L100.038,-4.136ZM100.683,0.148L99.617,0.148L99.393,-1.357L100.459,-1.357L100.683,0.148ZM104.689,-4.136L103.739,-4.136L102.287,-13.833L103.362,-13.833L104.366,-7.129C104.689,-6.454 105.122,-5.912 105.666,-5.502C106.209,-5.093 106.845,-4.889 107.575,-4.889C108.357,-4.889 108.917,-5.108 109.255,-5.547C109.592,-5.986 109.678,-6.783 109.51,-7.936L108.623,-13.833L109.699,-13.833L110.586,-7.927C110.789,-6.577 110.654,-5.577 110.183,-4.929C109.71,-4.281 108.967,-3.956 107.951,-3.956C107.222,-3.956 106.571,-4.113 105.997,-4.427C105.424,-4.741 104.94,-5.187 104.545,-5.767L104.689,-4.136ZM115.048,-13.833L116.375,-5.014L118.687,-5.014L118.812,-4.136L116.5,-4.136L116.715,-2.72C116.817,-2.056 117.057,-1.538 117.437,-1.165C117.816,-0.791 118.287,-0.605 118.848,-0.605C119.051,-0.605 119.228,-0.615 119.377,-0.636C119.526,-0.657 119.667,-0.685 119.798,-0.721L120.076,0.166C119.873,0.22 119.67,0.262 119.467,0.292C119.264,0.322 119.069,0.336 118.884,0.336C117.994,0.336 117.268,0.08 116.706,-0.434C116.145,-0.948 115.789,-1.71 115.64,-2.72L115.425,-4.136L113.82,-4.136L113.695,-5.014L115.29,-5.014L113.973,-13.833L115.048,-13.833ZM127.263,-13.833C127.215,-13.516 127.197,-13.2 127.209,-12.883C127.221,-12.566 127.254,-12.232 127.308,-11.879L128.025,-7.111C128.174,-6.107 127.958,-5.331 127.375,-4.781C126.793,-4.231 125.987,-3.956 124.96,-3.956C123.872,-3.956 122.942,-4.234 122.168,-4.79C121.394,-5.346 120.969,-6 120.891,-6.753L120.909,-6.806L121.886,-6.815C121.963,-6.284 122.285,-5.827 122.849,-5.444C123.414,-5.062 124.055,-4.871 124.772,-4.871C125.584,-4.871 126.177,-5.06 126.551,-5.44C126.924,-5.819 127.06,-6.37 126.958,-7.093L126.779,-8.294L124.395,-8.294C123.17,-8.294 122.141,-8.554 121.308,-9.074C120.474,-9.594 119.992,-10.305 119.86,-11.207C119.729,-12.061 119.896,-12.744 120.362,-13.255C120.828,-13.766 121.518,-14.021 122.433,-14.021C123.191,-14.021 123.899,-13.849 124.557,-13.506C125.214,-13.162 125.758,-12.731 126.188,-12.211C126.146,-12.456 126.125,-12.695 126.125,-12.928C126.125,-13.161 126.131,-13.462 126.143,-13.833L127.263,-13.833ZM121.263,-12.583C120.955,-12.257 120.843,-11.81 120.927,-11.243C121.016,-10.663 121.385,-10.164 122.034,-9.746C122.682,-9.328 123.424,-9.119 124.261,-9.119L126.654,-9.119L126.358,-11.055C126.029,-11.634 125.526,-12.115 124.848,-12.498C124.17,-12.88 123.451,-13.071 122.692,-13.071C122.047,-13.071 121.571,-12.908 121.263,-12.583M132.138,-12.031C131.749,-11.309 131.648,-10.356 131.833,-9.172L131.887,-8.796C132.054,-7.691 132.455,-6.76 133.088,-6.004C133.721,-5.249 134.537,-4.871 135.535,-4.871C136.305,-4.871 136.915,-5.095 137.363,-5.543C137.811,-5.991 137.975,-6.618 137.856,-7.425L138.815,-7.425L138.842,-7.38C139.015,-6.364 138.785,-5.54 138.152,-4.906C137.518,-4.273 136.691,-3.956 135.669,-3.956C134.343,-3.956 133.257,-4.397 132.411,-5.278C131.566,-6.16 131.033,-7.332 130.812,-8.796L130.758,-9.172C130.543,-10.577 130.741,-11.736 131.354,-12.65C131.966,-13.564 132.906,-14.021 134.172,-14.021C135.164,-14.021 136.074,-13.73 136.901,-13.147C137.729,-12.565 138.202,-11.804 138.322,-10.866L138.304,-10.813L137.354,-10.813C137.24,-11.53 136.876,-12.093 136.261,-12.502C135.645,-12.911 134.994,-13.116 134.307,-13.116C133.249,-13.116 132.526,-12.754 132.138,-12.031M144.021,0.148L142.946,0.148L140.849,-13.833L141.924,-13.833L142.937,-7.057C143.277,-6.406 143.728,-5.882 144.29,-5.484C144.852,-5.087 145.488,-4.889 146.199,-4.889C146.946,-4.889 147.488,-5.107 147.826,-5.543C148.163,-5.979 148.251,-6.744 148.09,-7.837L147.194,-13.833L148.269,-13.833L149.166,-7.855C149.363,-6.535 149.227,-5.555 148.758,-4.915C148.289,-4.276 147.561,-3.956 146.575,-3.956C145.858,-3.956 145.209,-4.109 144.626,-4.414C144.044,-4.718 143.549,-5.154 143.143,-5.722L144.021,0.148Z" style="fill:white;fill-rule:nonzero;"/>
            </g>
        </g>
    </g>
</svg>
